<svg width="660" height="220" viewBox="0 0 560 220" fill="none"
  xmlns="http://www.w3.org/2000/svg">
  <defs>
    <linearGradient id="redGrad" x1="0" y1="0" x2="1" y2="1">
      <stop offset="0%" stop-color="#FF3344"/>
      <stop offset="100%" stop-color="#D90429"/>
    </linearGradient>
    <linearGradient id="orangeGrad" x1="0" y1="0" x2="1" y2="1">
      <stop offset="0%" stop-color="#FF8A1F"/>
      <stop offset="100%" stop-color="#F4511E"/>
    </linearGradient>
  </defs>

  <!-- Racing mark -->
  <g transform="translate(28 40) skewX(-18)">
    <rect x="0" y="0" width="56" height="44" rx="4" fill="url(#redGrad)"/>
    <rect x="72" y="0" width="56" height="44" rx="4" fill="url(#redGrad)"/>
    <rect x="144" y="0" width="56" height="44" rx="4" fill="url(#orangeGrad)"/>

    <rect x="36" y="48" width="56" height="44" rx="4" fill="url(#redGrad)"/>
    <rect x="108" y="48" width="56" height="44" rx="4" fill="url(#redGrad)"/>

    <rect x="0" y="96" width="56" height="44" rx="4" fill="url(#redGrad)"/>
    <rect x="72" y="96" width="56" height="44" rx="4" fill="url(#redGrad)"/>
    <path d="M144 96H200V140H164L144 154V96Z" fill="url(#orangeGrad)"/>
  </g>

  <!-- Wordmark -->
  <g transform="translate(270 42) skewX(-10)">
    <text x="0" y="64" font-family="Arial Black, Inter, sans-serif" font-size="70" font-weight="900" letter-spacing="2" fill="#F8FAFC">ASYNC</text>

    <text x="0" y="138" font-family="Arial Black, Inter, sans-serif" font-size="70" font-weight="900" letter-spacing="2" fill="url(#redGrad)">RACE</text>
  </g>
</svg>
