<svg xmlns="http://www.w3.org/2000/svg" viewBox="0 0 32 32" fill="none" stroke="currentColor" stroke-width="2" stroke-linecap="round" stroke-linejoin="round" class="w-8 h-8 text-orange-500 drop-shadow-[0_0_8px_rgba(255,87,34,0.5)]">
    <!-- Checkered Flag Pattern Base -->
    <path d="M4 14h3M2 18h5M3 22h3" stroke-width="1.5" opacity="0.6" />

    <!-- Aerodynamic Racing Helmet Outer Shell -->
    <path d="M10 24c-3 0-6-2.5-6-6.5S8 7 15 7s13 3 13 10.5-3.5 6.5-6.5 6.5" />

    <!-- Helmet Base and Collar Line -->
    <path d="M10 24s1 2.5 4 2.5h8c3 0 4-2.5 4-2.5" />

    <!-- Sleek Visor (Filled/Tinted) -->
    <path d="M16 11h7c2.5 0 3.5 2 3.5 4.5S24.5 20 21 20h-5c-2 0-4-1.5-4-4.5s2-4.5 4-4.5z" fill="currentColor" fill-opacity="0.15" />

    <!-- Speed/Motion Cuts inside the Visor -->
    <path d="M15 14h4M14 17h6" stroke-width="1.5" />
</svg>